<?xml version="1.0" encoding="UTF-8"?> <svg xmlns="http://www.w3.org/2000/svg" id="b" viewBox="0 0 863.59 310.97"><defs><style>.d{stroke:#0e325b;stroke-linejoin:round;stroke-width:3.06px;}.d,.e{fill:none;stroke-linecap:round;}.f{fill:#fff;}.f,.g,.h{stroke-width:0px;}.g{fill:#1a3865;}.h{fill:#95cca5;}.e{stroke:#95cca5;stroke-miterlimit:10;stroke-width:15px;}</style></defs><g id="c"><path class="e" d="m193.17,234.72c-10.63,39.6-46.77,68.75-89.73,68.75-51.31,0-92.9-41.59-92.9-92.9,0-13.95,3.08-27.18,8.59-39.06"></path><path class="g" d="m89.67,135.1l16.76-14.9c5.38,6.21,12.62,11.79,24.83,11.79,8.07,0,13.24-3.52,13.24-9.72,0-16.55-51.1-10.14-51.1-48.62,0-20.07,17.17-32.07,39.31-32.07,11.37,0,19.93,3.31,26.18,7.71,6.68,4.7,6.74,14.6.2,19.49h0c-4.17,3.11-9.94,3.32-14.12.23-3.35-2.48-7.76-4.46-13.5-4.46-6.62,0-11.17,3.31-11.17,8.69,0,17.17,51.31,8.9,51.31,47.58,0,21.1-18.21,34.34-41.58,34.34-21.31,0-34.55-10.76-40.34-20.07Z"></path><path class="h" d="m210.02,172.21l8.52-22.42-41.58-105.51h30.62l24.2,70.54,24.41-70.54h29.79l-52.11,137c-1.88,4.95-6.63,8.23-11.93,8.23h0c-8.94,0-15.11-8.95-11.93-17.3Z"></path><path class="g" d="m392.95,90v62.48h-28.55v-65.79c0-12-8.28-19.45-18-19.45-11.79,0-19.24,8.69-19.24,20.27v64.96h-28.55V44.28h27.93v12.62c4.55-7.45,14.9-15.31,28.96-15.31,30.82,0,37.44,25.45,37.44,48.41Z"></path><path class="g" d="m414.9,107.28v-62.48h28.55v65.79c0,12,8.27,19.45,18,19.45,11.79,0,19.24-8.69,19.24-20.27V44.8h28.55v108.2h-27.93v-12.62c-4.55,7.45-14.9,15.31-28.96,15.31-30.82,0-37.44-25.45-37.44-48.41Z"></path><path class="g" d="m530.76,44.8h26.89v11.38c2.9-3.72,13.65-14.07,32.07-14.07,31.03,0,52.96,23.58,52.96,56.68s-20.27,56.89-51.31,56.89c-18.62,0-29.38-10.34-32.07-13.86v49.86h-28.55V44.8Zm55.44,85.65c16.55,0,27.72-13.03,27.72-31.86s-11.58-31.24-27.72-31.24c-17.38,0-27.72,14.07-27.72,31.24,0,20.27,12,31.86,27.72,31.86Z"></path><path class="g" d="m660.64,21.52h28.13v22.76h20.27v23.17h-20.27v41.79c0,16.14,4.97,19.45,15.93,19.45,1.86,0,2.9,0,5.17-.21v24.41s-4.34,1.03-12.21,1.03c-25.86,0-37.24-14.48-37.24-43.86v-42.62h-11.38v-23.17h11.58v-22.76Z"></path><path class="g" d="m742.64,0h0c7.88,0,14.27,6.39,14.27,14.27v79.65c0,7.88-6.39,14.27-14.27,14.27h0c-7.88,0-14.27-6.39-14.27-14.27V14.27c0-7.88,6.39-14.27,14.27-14.27Z"></path><path class="g" d="m725.89,134.26c0-9.31,7.24-16.34,16.55-16.34s16.76,7.03,16.76,16.34-7.24,16.34-16.76,16.34-16.55-7.03-16.55-16.34Z"></path><path class="g" d="m855.73,120.2l7.65,23.38c-6.21,4.96-18,11.58-33.72,11.58-33.72,0-57.72-23.58-57.72-56.48s24.62-57.1,57.51-57.1c15.93,0,27.1,6.21,34.13,11.58l-8.07,24c-4.76-4.34-13.03-10.34-25.24-10.34-18.41,0-29.79,14.27-29.79,31.65,0,18.41,12.83,31.45,30.82,31.45,10.96,0,19.65-5.79,24.41-9.72Z"></path><path class="h" d="m.83,136.36l2.32,4.87c5.92,12.41,8.75,26.07,8.25,39.81l-.19,5.35c-.17,4.69,3.49,8.63,8.18,8.8l1.75.07c15.79.59,31.1,5.55,44.23,14.33l2.53,1.69c3.95,2.64,9.3,1.53,11.87-2.47l1.59-2.47c8.57-13.32,20.67-24,34.96-30.83l1.55-.74c4.24-2.03,6.03-7.1,4-11.34l-2.25-4.7c-5.98-12.48-8.83-26.23-8.31-40.06l.2-5.25c.18-4.7-3.49-8.64-8.19-8.81l-1.6-.06c-15.89-.57-31.31-5.56-44.51-14.42l-2.37-1.59c-3.95-2.65-9.31-1.54-11.88,2.46l-1.6,2.49c-8.58,13.34-20.71,24.02-35.02,30.84l-1.48.7c-4.24,2.02-6.03,7.09-4.01,11.33Z"></path><path class="d" d="m19.45,171.67c.04,1.45.03,2.91-.02,4.37l-.16,4.5c-.14,3.94,2.93,7.25,6.87,7.4l1.47.05c13.27.5,26.14,4.66,37.18,12.04l2.12,1.42c3.32,2.22,7.82,1.28,9.98-2.08l1.33-2.07c7.2-11.2,17.38-20.17,29.39-25.91l1.31-.62c3.56-1.7,5.07-5.97,3.36-9.53l-1.89-3.95c-5.03-10.49-7.42-22.04-6.99-33.67l.17-4.41c.15-3.95-2.94-7.27-6.88-7.41l-1.35-.05c-2.73-.1-5.44-.35-8.12-.75"></path><path class="d" d="m17.93,158.65c.49,2.32.86,4.66,1.12,7.02"></path><path class="d" d="m66.11,104.38c-2.83-1.4-5.57-2.98-8.2-4.75l-1.99-1.34c-3.32-2.23-7.82-1.3-9.99,2.07l-1.34,2.09c-7.21,11.21-17.4,20.19-29.44,25.93l-1.24.59c-3.56,1.7-5.07,5.96-3.37,9.52l1.95,4.09c.88,1.85,1.68,3.73,2.4,5.64"></path><path class="g" d="m207.11,199.44h10.14v2.26h-7.67v7.12h6.69v2.23h-6.69v7.54h8v2.23h-10.48v-21.38Z"></path><path class="g" d="m221.75,216.73c.67,1.25,1.8,2.44,3.97,2.44,1.59,0,2.93-.92,2.93-2.54,0-3.67-7.97-2.41-7.97-7.79,0-2.69,2.23-4.31,5.1-4.31s4.49,1.86,4.92,3.05l-1.77,1.01c-.43-.86-1.25-2.05-3.3-2.05-1.47,0-2.63.83-2.63,2.2,0,3.57,8,2.23,8,7.76,0,2.81-2.32,4.7-5.41,4.7-3.33,0-4.83-1.89-5.53-3.39l1.68-1.1Z"></path><path class="g" d="m234,204.94h2.32v2.5c.4-.58,2.08-2.9,5.53-2.9,4.52,0,7.76,3.45,7.76,8.31s-3.09,8.37-7.58,8.37c-3.33,0-5.13-2.14-5.62-2.96v8.28h-2.41v-21.6Zm7.76,14.08c3.12,0,5.38-2.54,5.38-6.17s-2.38-6.11-5.44-6.11c-3.3,0-5.38,2.78-5.38,6.11,0,3.91,2.44,6.17,5.44,6.17Z"></path><path class="g" d="m257.8,210.71c2.02,0,3.54.76,4.19,1.44v-1.96c0-2.23-1.5-3.51-3.85-3.51-1.96,0-3.54.7-4.67,1.37l-.98-1.77c1.07-.67,3.18-1.74,5.87-1.74,4.34,0,6.05,2.41,6.05,5.8v10.48h-2.08l-.27-1.34c-.82.95-2.17,1.74-4.31,1.74-3.48,0-6.05-2.2-6.05-5.28s2.54-5.22,6.11-5.22Zm.34,8.49c2.32,0,3.94-1.38,3.94-3.3s-1.59-3.27-3.97-3.27-3.97,1.41-3.97,3.27,1.56,3.3,4,3.3Z"></path><path class="g" d="m280.13,208.79c-.64-.67-2.29-2.02-4.7-2.02-3.33,0-5.68,2.66-5.68,6.11s2.47,6.14,5.74,6.14c2.51,0,4.09-1.47,4.74-2.11l.73,2.05c-.64.67-2.6,2.26-5.56,2.26-4.73,0-8.16-3.63-8.16-8.34s3.51-8.34,8.13-8.34c2.9,0,4.77,1.38,5.59,2.17l-.82,2.08Z"></path><path class="g" d="m285.14,199.2c.95,0,1.68.73,1.68,1.65s-.73,1.68-1.68,1.68-1.65-.73-1.65-1.68.73-1.65,1.65-1.65Zm-1.19,5.74h2.41v15.88h-2.41v-15.88Z"></path><path class="g" d="m297.76,204.54c4.8,0,8.28,3.57,8.28,8.34s-3.54,8.34-8.31,8.34-8.28-3.51-8.28-8.34,3.57-8.34,8.31-8.34Zm-.03,14.48c3.42,0,5.87-2.6,5.87-6.14s-2.44-6.14-5.87-6.14-5.8,2.66-5.8,6.14,2.41,6.14,5.8,6.14Z"></path><path class="g" d="m331.43,220.82h-2.35v-2.5c-.4.58-2.05,2.9-5.5,2.9-4.55,0-7.76-3.45-7.76-8.31s3.05-8.37,7.58-8.37c3.3,0,5.13,2.14,5.59,2.96v-8.77h2.44v22.09Zm-7.76-14.08c-3.12,0-5.38,2.57-5.38,6.2s2.35,6.11,5.41,6.11c3.33,0,5.38-2.78,5.38-6.11,0-3.94-2.44-6.2-5.41-6.2Z"></path><path class="g" d="m342.25,204.54c4.67,0,7.54,3.36,7.54,8.13,0,.09,0,.43-.03.73h-12.74c.03,3.54,2.41,5.68,5.71,5.68,2.69,0,4.19-1.41,4.95-2.47l1.59,1.16c-.89,1.5-2.96,3.45-6.57,3.45-4.83,0-8.16-3.39-8.16-8.28s3.48-8.4,7.7-8.4Zm5.07,7.06c-.15-3.3-2.44-4.98-5.07-4.98s-4.92,1.99-5.1,4.98h10.17Z"></path><path class="g" d="m372.43,208.79c-.64-.67-2.29-2.02-4.7-2.02-3.33,0-5.68,2.66-5.68,6.11s2.47,6.14,5.74,6.14c2.51,0,4.09-1.47,4.74-2.11l.73,2.05c-.64.67-2.6,2.26-5.56,2.26-4.74,0-8.16-3.63-8.16-8.34s3.51-8.34,8.12-8.34c2.9,0,4.77,1.38,5.59,2.17l-.83,2.08Z"></path><path class="g" d="m383.37,206.96c-3.64,0-4.7,2.87-4.7,6.26v7.61h-2.41v-15.88h2.38v2.66c.55-1.59,2.32-3.05,4.74-3.05v2.41Z"></path><path class="g" d="m392.11,204.54c4.67,0,7.55,3.36,7.55,8.13,0,.09,0,.43-.03.73h-12.74c.03,3.54,2.41,5.68,5.71,5.68,2.69,0,4.18-1.41,4.95-2.47l1.59,1.16c-.89,1.5-2.96,3.45-6.57,3.45-4.83,0-8.16-3.39-8.16-8.28s3.48-8.4,7.7-8.4Zm5.07,7.06c-.15-3.3-2.44-4.98-5.07-4.98s-4.92,1.99-5.1,4.98h10.17Z"></path><path class="g" d="m407.78,210.71c2.02,0,3.54.76,4.18,1.44v-1.96c0-2.23-1.5-3.51-3.85-3.51-1.96,0-3.54.7-4.67,1.37l-.98-1.77c1.07-.67,3.18-1.74,5.87-1.74,4.34,0,6.05,2.41,6.05,5.8v10.48h-2.08l-.27-1.34c-.83.95-2.17,1.74-4.31,1.74-3.48,0-6.05-2.2-6.05-5.28s2.54-5.22,6.11-5.22Zm.34,8.49c2.32,0,3.94-1.38,3.94-3.3s-1.59-3.27-3.97-3.27-3.97,1.41-3.97,3.27,1.56,3.3,4,3.3Z"></path><path class="g" d="m430.11,208.79c-.64-.67-2.29-2.02-4.71-2.02-3.33,0-5.68,2.66-5.68,6.11s2.47,6.14,5.74,6.14c2.5,0,4.09-1.47,4.74-2.11l.73,2.05c-.64.67-2.6,2.26-5.56,2.26-4.73,0-8.16-3.63-8.16-8.34s3.51-8.34,8.13-8.34c2.9,0,4.77,1.38,5.59,2.17l-.82,2.08Z"></path><path class="g" d="m435.13,199.2c.95,0,1.68.73,1.68,1.65s-.73,1.68-1.68,1.68-1.65-.73-1.65-1.68.73-1.65,1.65-1.65Zm-1.19,5.74h2.41v15.88h-2.41v-15.88Z"></path><path class="g" d="m447.74,204.54c4.8,0,8.28,3.57,8.28,8.34s-3.54,8.34-8.31,8.34-8.28-3.51-8.28-8.34,3.57-8.34,8.31-8.34Zm-.03,14.48c3.42,0,5.87-2.6,5.87-6.14s-2.44-6.14-5.87-6.14-5.8,2.66-5.8,6.14,2.41,6.14,5.8,6.14Zm.67-20.34h2.66l-2.72,4.34h-2.11l2.17-4.34Z"></path><path class="g" d="m471.82,210.9v9.93h-2.41v-10.02c0-2.54-1.59-4.06-3.76-4.06-2.44,0-4.12,1.8-4.12,4.43v9.65h-2.41v-15.88h2.38v2.29c.76-1.44,2.54-2.69,4.74-2.69,3.7,0,5.59,2.75,5.59,6.35Z"></path><path class="g" d="m495.43,208.79c-.64-.67-2.29-2.02-4.7-2.02-3.33,0-5.68,2.66-5.68,6.11s2.47,6.14,5.74,6.14c2.51,0,4.09-1.47,4.74-2.11l.73,2.05c-.64.67-2.6,2.26-5.56,2.26-4.74,0-8.16-3.63-8.16-8.34s3.51-8.34,8.12-8.34c2.9,0,4.77,1.38,5.59,2.17l-.83,2.08Z"></path><path class="g" d="m500.45,199.2c.95,0,1.68.73,1.68,1.65s-.73,1.68-1.68,1.68-1.65-.73-1.65-1.68.73-1.65,1.65-1.65Zm-1.19,5.74h2.41v15.88h-2.41v-15.88Z"></path><path class="g" d="m512.48,204.54c4.67,0,7.55,3.36,7.55,8.13,0,.09,0,.43-.03.73h-12.74c.03,3.54,2.41,5.68,5.71,5.68,2.69,0,4.18-1.41,4.95-2.47l1.59,1.16c-.89,1.5-2.96,3.45-6.57,3.45-4.83,0-8.16-3.39-8.16-8.28s3.48-8.4,7.7-8.4Zm5.07,7.06c-.15-3.3-2.44-4.98-5.07-4.98s-4.92,1.99-5.1,4.98h10.17Z"></path><path class="g" d="m535.79,210.9v9.93h-2.41v-10.02c0-2.54-1.59-4.06-3.76-4.06-2.44,0-4.12,1.8-4.12,4.43v9.65h-2.41v-15.88h2.38v2.29c.76-1.44,2.54-2.69,4.74-2.69,3.7,0,5.59,2.75,5.59,6.35Z"></path><path class="g" d="m540.01,201.61h2.41v3.33h3.48v2.05h-3.48v8.19c0,2.96.86,3.67,2.93,3.67.31,0,.67-.03.67-.03v2.14s-.64.09-1.47.09c-3.18,0-4.55-2.08-4.55-5.65v-8.4h-1.86v-2.05h1.86v-3.33Z"></path><path class="g" d="m550.83,198.68h2.66l-2.72,4.34h-2.11l2.17-4.34Zm-1.99,6.26h2.41v15.88h-2.41v-15.88Z"></path><path class="g" d="m555.9,206.99h-1.77v-2.05h1.77v-.83c0-4,2.41-5.29,4.98-5.29.52,0,1.01.06,1.01.06v2.11s-.4-.06-.76-.06c-1.8,0-2.78.98-2.78,3.18v.83h3.39v2.05h-3.39v13.84h-2.44v-13.84Z"></path><path class="g" d="m565.58,199.2c.95,0,1.68.73,1.68,1.65s-.73,1.68-1.68,1.68-1.65-.73-1.65-1.68.73-1.65,1.65-1.65Zm-1.19,5.74h2.41v15.88h-2.41v-15.88Z"></path><path class="g" d="m582.78,208.79c-.64-.67-2.29-2.02-4.7-2.02-3.33,0-5.68,2.66-5.68,6.11s2.47,6.14,5.74,6.14c2.5,0,4.09-1.47,4.74-2.11l.73,2.05c-.64.67-2.6,2.26-5.56,2.26-4.73,0-8.16-3.63-8.16-8.34s3.51-8.34,8.13-8.34c2.9,0,4.77,1.38,5.59,2.17l-.83,2.08Z"></path><path class="g" d="m591.68,210.71c2.02,0,3.54.76,4.18,1.44v-1.96c0-2.23-1.5-3.51-3.85-3.51-1.96,0-3.54.7-4.67,1.37l-.98-1.77c1.07-.67,3.18-1.74,5.87-1.74,4.34,0,6.05,2.41,6.05,5.8v10.48h-2.08l-.27-1.34c-.83.95-2.17,1.74-4.31,1.74-3.48,0-6.05-2.2-6.05-5.28s2.54-5.22,6.11-5.22Zm.34,8.49c2.32,0,3.94-1.38,3.94-3.3s-1.59-3.27-3.97-3.27-3.97,1.41-3.97,3.27,1.56,3.3,4,3.3Z"></path><circle class="f" cx="61.94" cy="149.57" r="18.33"></circle></g></svg> 